<?xml version="1.0" encoding="UTF-8" standalone="no"?>
<svg
   xmlns:dc="http://purl.org/dc/elements/1.1/"
   xmlns:cc="http://creativecommons.org/ns#"
   xmlns:rdf="http://www.w3.org/1999/02/22-rdf-syntax-ns#"
   xmlns:svg="http://www.w3.org/2000/svg"
   xmlns="http://www.w3.org/2000/svg"
   xmlns:sodipodi="http://sodipodi.sourceforge.net/DTD/sodipodi-0.dtd"
   xmlns:inkscape="http://www.inkscape.org/namespaces/inkscape"
   viewBox="0 0 64.000002 63.999998"
   version="1.1"
   id="svg3983"
   sodipodi:docname="icon.svg"
   width="64"
   height="64"
   inkscape:version="0.92.4 (5da689c313, 2019-01-14)">
  <metadata
     id="metadata3987">
    <rdf:RDF>
      <cc:Work
         rdf:about="">
        <dc:format>image/svg+xml</dc:format>
        <dc:type
           rdf:resource="http://purl.org/dc/dcmitype/StillImage" />
        <dc:title>crabigator</dc:title>
      </cc:Work>
    </rdf:RDF>
  </metadata>
  <sodipodi:namedview
     pagecolor="#ffffff"
     bordercolor="#666666"
     borderopacity="1"
     objecttolerance="10"
     gridtolerance="10"
     guidetolerance="10"
     inkscape:pageopacity="0"
     inkscape:pageshadow="2"
     inkscape:window-width="1920"
     inkscape:window-height="1017"
     id="namedview3985"
     showgrid="false"
     fit-margin-top="0"
     fit-margin-left="0"
     fit-margin-right="0"
     fit-margin-bottom="0"
     inkscape:zoom="11.103836"
     inkscape:cx="45.296746"
     inkscape:cy="36.075748"
     inkscape:window-x="1912"
     inkscape:window-y="-8"
     inkscape:window-maximized="1"
     inkscape:current-layer="svg3983" />
  <defs
     id="defs3907">
    <style
       id="style3851">.cls-1{fill:#c93d4e;}.cls-2{fill:#ec4753;}.cls-3{fill:#ec9353;}.cls-4,.cls-5{stroke:#3d2327;}.cls-4,.cls-5,.cls-9{stroke-miterlimit:10;}.cls-4{stroke-width:3px;fill:url(#linear-gradient);}.cls-5,.cls-7{fill:#3d2327;}.cls-5{stroke-width:0.5px;}.cls-6{fill:url(#linear-gradient-2);}.cls-8{fill:url(#linear-gradient-3);}.cls-9{fill:none;stroke:#000;}.cls-10{fill:#ffe9d7;}.cls-11{fill:#fff8f3;}.cls-12{fill:url(#linear-gradient-4);}.cls-13{fill:#69d7a0;}.cls-14{fill:#fff;}</style>
    <linearGradient
       id="linear-gradient"
       x1="143.64"
       y1="187.5"
       x2="162.5"
       y2="-144.55"
       gradientUnits="userSpaceOnUse">
      <stop
         offset="0"
         stop-color="#ffc509"
         stop-opacity="0"
         id="stop3853" />
      <stop
         offset="0.09"
         stop-color="#ffca23"
         stop-opacity="0.13"
         id="stop3855" />
      <stop
         offset="0.28"
         stop-color="#ffd359"
         stop-opacity="0.39"
         id="stop3857" />
      <stop
         offset="0.46"
         stop-color="#ffdb86"
         stop-opacity="0.61"
         id="stop3859" />
      <stop
         offset="0.63"
         stop-color="#ffe1a9"
         stop-opacity="0.78"
         id="stop3861" />
      <stop
         offset="0.78"
         stop-color="#ffe5c2"
         stop-opacity="0.9"
         id="stop3863" />
      <stop
         offset="0.91"
         stop-color="#ffe8d2"
         stop-opacity="0.97"
         id="stop3865" />
      <stop
         offset="1"
         stop-color="#ffe9d7"
         id="stop3867" />
    </linearGradient>
    <linearGradient
       id="linear-gradient-2"
       x1="276.10999"
       y1="30.639999"
       x2="261.60999"
       y2="66.790001"
       gradientUnits="userSpaceOnUse">
      <stop
         offset="0"
         stop-color="#fff8f3"
         id="stop3870" />
      <stop
         offset="0.19"
         stop-color="#faf1ea"
         id="stop3872" />
      <stop
         offset="0.49"
         stop-color="#eeded2"
         id="stop3874" />
      <stop
         offset="0.87"
         stop-color="#dabfaa"
         id="stop3876" />
      <stop
         offset="1"
         stop-color="#d3b39b"
         id="stop3878" />
    </linearGradient>
    <linearGradient
       id="linear-gradient-3"
       x1="247.2"
       y1="206.72"
       x2="173.33"
       y2="126.68"
       gradientUnits="userSpaceOnUse">
      <stop
         offset="0"
         stop-color="#d3b39b"
         id="stop3881" />
      <stop
         offset="0.09"
         stop-color="#e0c3ad"
         id="stop3883" />
      <stop
         offset="0.23"
         stop-color="#eed4c0"
         id="stop3885" />
      <stop
         offset="0.39"
         stop-color="#f8e0cd"
         id="stop3887" />
      <stop
         offset="0.59"
         stop-color="#fde7d5"
         id="stop3889" />
      <stop
         offset="1"
         stop-color="#ffe9d7"
         id="stop3891" />
    </linearGradient>
    <linearGradient
       id="linear-gradient-4"
       x1="307.07999"
       y1="292.76999"
       x2="255.39"
       y2="247.22"
       gradientUnits="userSpaceOnUse">
      <stop
         offset="0.38"
         stop-color="#d3b39b"
         id="stop3894" />
      <stop
         offset="0.43"
         stop-color="#e0c3ad"
         id="stop3896" />
      <stop
         offset="0.52"
         stop-color="#eed4c0"
         id="stop3898" />
      <stop
         offset="0.62"
         stop-color="#f8e0cd"
         id="stop3900" />
      <stop
         offset="0.75"
         stop-color="#fde7d5"
         id="stop3902" />
      <stop
         offset="1"
         stop-color="#ffe9d7"
         id="stop3904" />
    </linearGradient>
  </defs>
  <title
     id="title3909">crabigator</title>
  <g
     id="crab_arm_behind"
     data-name="crab arm behind"
     transform="matrix(0.20468613,0,0,0.20468613,0.17183581,1.3261072)">
    <path
       class="cls-1"
       d="m 121.81,163.81 c -3,-25.55 13.32,-47.31 27,-54.36 17.34,-8.93 30.16,14.91 41.1,24.91 17.65,16.13 31.76,24.09 19.34,40.72 -28.88,38.74 -83.01,26.3 -87.44,-11.27 z"
       id="path3911"
       inkscape:connector-curvature="0"
       style="fill:#c93d4e" />
    <path
       class="cls-1"
       d="m 167.61,84.47 c -2.1,5.72 4.75,7.82 -7.69,35 -24,52.47 50.73,56.17 65.38,-17.51 8,-40.33 -21.18,-50.27 -32.88,-47.08 -11.7,3.19 -22.72,23.88 -24.81,29.59 z"
       id="path3913"
       inkscape:connector-curvature="0"
       style="fill:#c93d4e" />
  </g>
  <g
     id="crab_body"
     data-name="crab body"
     transform="matrix(0.20468613,0,0,0.20468613,0.17183581,1.3261072)">
    <path
       class="cls-2"
       d="m 134.41,297.86 c 45.25,-1.8 47.73,-3.31 50.91,-42.43 2.7,-33.19 -15.58,-78.15 -38.36,-100.2 -36.8,-35.62 -149.42,-42.47 -143.83,20.89 5.54,62.7 66.45,121.74 131.28,121.74 z"
       id="path3916"
       inkscape:connector-curvature="0"
       style="fill:#ec4753" />
    <path
       class="cls-3"
       d="m 97.07,195.57 c 13.83,-22 49.19,-39.17 66,-24 19.25,17.4 41.24,110.51 22.62,120.59 -21.19,11.49 -161.95,20 -88.62,-96.59 z"
       id="path3918"
       inkscape:connector-curvature="0"
       style="fill:#ec9353" />
  </g>
  <g
     id="background"
     transform="matrix(0.20468613,0,0,0.20468613,0.17183581,1.3261072)">
    <circle
       class="cls-4"
       cx="145.5"
       cy="154.82001"
       r="144"
       id="circle3921"
       style="fill:url(#linear-gradient);stroke:#3d2327;stroke-width:3px;stroke-miterlimit:10" />
  </g>
  <g
     id="left_arm_back"
     data-name="left arm back"
     transform="matrix(0.20468613,0,0,0.20468613,0.17183581,1.3261072)">
    <path
       class="cls-1"
       d="M 224.06,0.08 C 240.62,5 273.6,98.66 224.28,122 c -16.9,8 -49.76,5.1 -60.54,-9.29 C 118.33,52.11 215.7,-2.39 224.06,0.08 Z"
       id="path3924"
       inkscape:connector-curvature="0"
       style="fill:#c93d4e" />
  </g>
  <g
     id="brush"
     transform="matrix(0.20468613,0,0,0.20468613,0.17183581,1.3261072)">
    <path
       id="wood"
       class="cls-5"
       d="m 139.24,22.35 c 14.25,-8.9 130.67,22.72 126,31.72 C 259.66,64.64 125,31.25 139.24,22.35 Z"
       inkscape:connector-curvature="0"
       style="fill:#3d2327;stroke:#3d2327;stroke-width:0.5px;stroke-miterlimit:10" />
    <path
       id="brush_head"
       data-name="brush head"
       class="cls-6"
       d="m 248.54,57.09 c -1.52,-4 0.58,-10.3 5.08,-13.3 13.71,-9.14 31.15,2.71 31,12.32 -0.23,12.14 -17.31,12.76 -22.92,11.81 -8.1,-1.38 -11.45,-6.39 -13.16,-10.83 z"
       inkscape:connector-curvature="0"
       style="fill:url(#linear-gradient-2)" />
    <path
       id="ink"
       class="cls-7"
       d="m 283.25,76.42 c -0.1,-4.3 -1.63,-7.77 -7.37,-7.59 -4.87,0.15 -9.23,0.4 -14.85,-0.55 -5.37,-0.91 -9.76,-15.52 11.84,-11.85 10.73,1.82 9.76,-6.92 11,-4.38 6.22,12.22 -0.57,26.74 -0.62,24.37 z"
       inkscape:connector-curvature="0"
       style="fill:#3d2327" />
  </g>
  <g
     id="left_arm_front"
     data-name="left arm front"
     transform="matrix(0.20468613,0,0,0.20468613,0.17183581,1.3261072)">
    <path
       class="cls-2"
       d="m 217.54,23.49 c 13.4,4 40.12,80.28 0.22,99.26 -13.67,6.51 -40.27,4.14 -49,-7.58 C 132,65.81 210.77,21.47 217.54,23.49 Z"
       id="path3931"
       inkscape:connector-curvature="0"
       style="fill:#ec4753" />
  </g>
  <g
     id="scroll_middle"
     data-name="scroll middle"
     transform="matrix(0.20468613,0,0,0.20468613,0.17183581,1.3261072)">
    <path
       class="cls-8"
       d="m 304.23,253.75 c -11.18,-5.56 -34.58,-33.69 -32.14,-53.71 2.4,-19.62 18.59,-37.63 26,-42.34 7.41,-4.71 -60.18,-19 -60.18,-19 -29.14,8.1 -44.78,48.22 -41.89,83.7 1.62,20 5.54,63.63 56.64,78.83 z"
       id="path3934"
       inkscape:connector-curvature="0"
       style="fill:url(#linear-gradient-3)" />
  </g>
  <g
     id="scroll_top"
     data-name="scroll top"
     transform="matrix(0.20468613,0,0,0.20468613,0.17183581,1.3261072)">
    <path
       class="cls-9"
       d="M 207.7,201.4"
       id="path3937"
       inkscape:connector-curvature="0"
       style="fill:none;stroke:#000000;stroke-miterlimit:10" />
    <path
       class="cls-10"
       d="m 236,138.06 c 0,0 49.33,8.14 61.3,10 14.79,6.42 6.81,28.67 -4,28.64 -6.06,-0.4 -31.43,-2.9 -58.85,-7.32 -8.88,-1.44 -9.9,-14.41 -10.28,-15.85 -2.08,-7.6 11.83,-15.47 11.83,-15.47 z"
       id="path3939"
       inkscape:connector-curvature="0"
       style="fill:#ffe9d7" />
    <path
       class="cls-11"
       d="m 220.21,152.8 a 15.79,15.79 0 0 0 31.51,2.06 c 0.37,-9 -6.17,-16.42 -14.73,-16.79 a 15.92,15.92 0 0 0 -16.78,14.73 z"
       id="path3941"
       inkscape:connector-curvature="0"
       style="fill:#fff8f3" />
  </g>
  <g
     id="scroll_bottom"
     data-name="scroll bottom"
     transform="matrix(0.20468613,0,0,0.20468613,0.17183581,1.3261072)">
    <path
       class="cls-9"
       d="M 207.7,201.4"
       id="path3944"
       inkscape:connector-curvature="0"
       style="fill:none;stroke:#000000;stroke-miterlimit:10" />
    <path
       class="cls-12"
       d="m 242.9,284.24 3.58,-5.81 c 0,0 32.77,-33.67 41,-42.51 10.88,-10 31.46,9.12 21.41,19.45 -3.73,4.78 -20.08,24.35 -39.16,44.52 -6.19,6.54 -7.85,-3.9 -9.25,-4.39 -7.46,-2.65 -19.42,0.79 -17.62,-11.26"
       id="path3946"
       inkscape:connector-curvature="0"
       style="fill:url(#linear-gradient-4)" />
    <path
       class="cls-11"
       d="m 248,302.13 a 15.79,15.79 0 1 0 19.43,-24.89 c -7.2,-5.36 -17,-4.14 -22.16,2.73 a 15.92,15.92 0 0 0 2.73,22.16 z"
       id="path3948"
       inkscape:connector-curvature="0"
       style="fill:#fff8f3" />
  </g>
  <g
     id="right_arm"
     data-name="right arm"
     transform="matrix(0.20468613,0,0,0.20468613,0.17183581,1.3261072)">
    <path
       class="cls-2"
       d="m 62.68,208.06 c 22.06,-13.24 48.6,-7.28 60.66,2.31 15.26,12.14 -1.21,33.62 -5.84,47.7 -7.46,22.72 -8.92,38.85 -29.18,34.36 C 41.13,282 30.23,227.52 62.68,208.06 Z"
       id="path3951"
       inkscape:connector-curvature="0"
       style="fill:#ec4753" />
    <path
       class="cls-2"
       d="m 155.73,224.24 c -6.07,0.44 -5.17,7.54 -35.1,7.38 -57.69,-0.31 -30.38,69.32 42.82,52.42 40.06,-9.25 37.13,-40 29.42,-49.32 -7.71,-9.32 -31.07,-10.92 -37.14,-10.48 z"
       id="path3953"
       inkscape:connector-curvature="0"
       style="fill:#ec4753" />
    <path
       class="cls-2"
       d="m 187.31,282.37 c -18.45,-4.68 -27.69,-20.29 -28.68,-22 -10.85,-19 -5.44,-42.14 5.36,-57 16.46,-22.56 38.76,-26.73 37,-23.08 -1.61,3.35 -6.32,27.83 -2.19,32.27 0.71,0.76 10.95,3.91 58.72,-16.88 4.36,-1.9 18.3,40.7 -9.8,68.63 -6.72,6.69 -27.63,26.37 -60.41,18.06 z"
       id="path3955"
       inkscape:connector-curvature="0"
       style="fill:#ec4753" />
  </g>
  <g
     id="crab_neck"
     data-name="crab neck"
     transform="matrix(0.20468613,0,0,0.20468613,0.17183581,1.3261072)">
    <path
       id="neck"
       class="cls-2"
       d="m 38.52,117.27 c -2.73,1.54 -17.9,10.1 -19.68,24 -3.41,26.62 44.09,49.36 47.3,50.7 8.63,3.61 46.21,15.74 78.54,0.68 3.11,-1.45 28.08,-13.79 27.46,-29.57 C 170.7,126.54 75.69,96.28 38.52,117.27 Z"
       inkscape:connector-curvature="0"
       style="fill:#ec4753" />
  </g>
  <g
     id="crab_head"
     data-name="crab head"
     transform="matrix(0.20468613,0,0,0.20468613,0.17183581,1.3261072)">
    <path
       class="cls-13"
       d="m 64.8,91.86 c -3.47,4.79 -5.46,25 -11.12,35.49 -5,9.25 -10.86,9.82 -11.47,14.82 -1.21,10.23 50.11,51.36 103.7,21.89 3.06,-1.68 -4.11,-4.76 -3.82,-12.18 0.35,-9.07 6,-9.26 6.35,-12.18 C 150.6,121.75 77.12,74.85 64.8,91.86 Z"
       id="path3960"
       inkscape:connector-curvature="0"
       style="fill:#69d7a0" />
    <ellipse
       id="right_eye_back"
       data-name="right eye back"
       class="cls-13"
       cx="115.2"
       cy="63.419998"
       rx="13.18"
       ry="19.469999"
       transform="rotate(-23.31,115.19696,63.412473)"
       style="fill:#69d7a0" />
    <ellipse
       id="left_eye_back"
       data-name="left eye back"
       class="cls-13"
       cx="72.620003"
       cy="78.080002"
       rx="13.18"
       ry="19.469999"
       transform="rotate(-23.31,72.621446,78.082142)"
       style="fill:#69d7a0" />
    <path
       id="Lower_Crab_Jaw"
       data-name="Lower Crab Jaw"
       class="cls-13"
       d="m 60.33,107.1 c -1.07,13.34 34.23,39.66 59.25,38.33 67.24,-3.59 89.8,-5.73 85.76,-44 -4.11,-39 -103.63,-41.95 -140.8,-10.81 -2.78,2.31 -3.34,5.61 -4.21,16.48 z"
       inkscape:connector-curvature="0"
       style="fill:#69d7a0" />
    <ellipse
       class="cls-14"
       cx="133.25"
       cy="131.45"
       rx="6.96"
       ry="9"
       transform="rotate(-0.34,132.74304,130.15271)"
       id="ellipse3965"
       style="fill:#ffffff" />
    <ellipse
       class="cls-14"
       cx="148.17"
       cy="131.44"
       rx="6.96"
       ry="9"
       transform="rotate(-0.34,146.22436,130.19271)"
       id="ellipse3967"
       style="fill:#ffffff" />
    <ellipse
       class="cls-14"
       cx="163.16"
       cy="129.28999"
       rx="6.96"
       ry="9"
       transform="rotate(-10.81,163.23373,129.33246)"
       id="ellipse3969"
       style="fill:#ffffff" />
    <ellipse
       class="cls-14"
       cx="177.86"
       cy="126.8"
       rx="6.96"
       ry="9"
       transform="rotate(-10.81,177.91979,126.82976)"
       id="ellipse3971"
       style="fill:#ffffff" />
    <ellipse
       class="cls-14"
       cx="192.25999"
       cy="121.99"
       rx="6.96"
       ry="9"
       transform="rotate(-10.81,192.34525,122.00971)"
       id="ellipse3973"
       style="fill:#ffffff" />
    <path
       id="Upper_Crab_Jaw"
       data-name="Upper Crab Jaw"
       class="cls-13"
       d="m 138.19,64.74 c 28.36,3.58 34.72,-10 45.43,-8.66 32.59,4.12 36.55,42.14 28.93,53.63 -7.05,10.62 -49.36,26.68 -95.47,19.71 -28.68,-4.33 -56.06,-16.74 -56,-30.75 0.05,-7.48 14.28,-41.86 77.11,-33.93 z"
       inkscape:connector-curvature="0"
       style="fill:#69d7a0" />
    <ellipse
       id="left_eye"
       data-name="left eye"
       class="cls-7"
       cx="72.620003"
       cy="78.080002"
       rx="5.3200002"
       ry="10.26"
       transform="rotate(-22.19,72.620505,78.078244)"
       style="fill:#3d2327" />
    <ellipse
       id="right_eye"
       data-name="right eye"
       class="cls-7"
       cx="115.2"
       cy="63.419998"
       rx="5.3200002"
       ry="10.26"
       transform="rotate(-22.19,115.21099,63.421359)"
       style="fill:#3d2327" />
    <path
       class="cls-7"
       d="m 172.34,91.73 c 0.49,-3.54 9.13,-2.06 9.44,4.43 0.08,1.73 -1.88,2.2 -4.2,-0.23 -1.24,-1.31 -5.58,-1.34 -5.24,-4.2 z"
       id="path3978"
       inkscape:connector-curvature="0"
       style="fill:#3d2327" />
    <path
       class="cls-7"
       d="m 205.87,80.18 c -2.79,-2.22 -8,4.81 -3.77,9.72 1.13,1.31 2.88,0.3 2.88,-3.06 C 205,85 208.14,82 205.87,80.18 Z"
       id="path3980"
       inkscape:connector-curvature="0"
       style="fill:#3d2327" />
  </g>
</svg>